<svg width="177" height="36" viewBox="0 0 177 36" fill="none" xmlns="http://www.w3.org/2000/svg">
<path d="M46.5795 -0.000366211H6.21601C2.7828 -0.000366211 -0.000366211 1.89734 -0.000366211 4.23828V31.7612C-0.000366211 34.1021 2.7828 35.9998 6.21601 35.9998H46.5795C50.0127 35.9998 52.7959 34.1021 52.7959 31.7612V4.23828C52.7959 1.89734 50.0127 -0.000366211 46.5795 -0.000366211Z" fill="url(#paint0_linear_81_464)"/>
<path d="M3.48415 16.2064C3.19584 15.9175 3.19584 15.4487 3.48415 15.1597C3.77246 14.8708 4.24031 14.8708 4.52862 15.1597L16.818 27.4754C17.1063 27.7643 17.1063 28.2331 16.818 28.5221C16.5296 28.811 16.0618 28.811 15.7735 28.5221L3.48415 16.2064Z" fill="#FEFEFE"/>
<path d="M24.2154 19.0158C24.5037 18.7269 24.9715 18.7269 25.2598 19.0158C25.5482 19.3048 25.5482 19.7736 25.2598 20.0625L16.818 28.5221C16.5296 28.811 16.0618 28.811 15.7735 28.5221C15.4852 28.2331 15.4854 27.7643 15.7737 27.4754L24.2154 19.0158Z" fill="#FEFEFE"/>
<path d="M4.52862 16.2064C4.24031 16.4954 3.77246 16.4954 3.48415 16.2064C3.19584 15.9175 3.19584 15.4487 3.48415 15.1597L11.1494 7.47813C11.4377 7.1892 11.9055 7.1892 12.1938 7.47813C12.4821 7.76706 12.4821 8.23591 12.1938 8.52484L4.52862 16.2064Z" fill="#FEFEFE"/>
<path d="M48.2677 15.1597C48.556 14.8708 49.0238 14.8708 49.3121 15.1597C49.6004 15.4487 49.6004 15.9175 49.3121 16.2064L37.0228 28.5221C36.7345 28.811 36.2666 28.811 35.9783 28.5221C35.69 28.2331 35.69 27.7643 35.9783 27.4754L48.2677 15.1597Z" fill="#FEFEFE"/>
<path d="M19.6481 12.1571C19.3598 11.8682 19.3598 11.3994 19.6481 11.1104C19.9364 10.8215 20.4042 10.8215 20.6926 11.1104L37.0228 27.4756C37.3111 27.7645 37.3111 28.2331 37.0228 28.5221C36.7345 28.811 36.2666 28.811 35.9783 28.5221L19.6481 12.1571Z" fill="#FEFEFE"/>
<path d="M49.3121 15.1597C49.6004 15.4487 49.6004 15.9175 49.3121 16.2064C49.0238 16.4954 48.5562 16.4954 48.2679 16.2064L40.6027 8.52484C40.3143 8.23591 40.3143 7.76706 40.6027 7.47813C40.891 7.1892 41.3588 7.1892 41.6471 7.47813L49.3121 15.1597Z" fill="#FEFEFE"/>
<path d="M63.0928 3.68627C63.0928 3.33866 62.971 3.04287 62.7227 2.794C62.4743 2.55454 62.1839 2.43696 61.8464 2.43696H61.8041C61.4668 2.43696 61.1715 2.55454 60.9231 2.794C60.6795 3.04287 60.5529 3.33887 60.5529 3.68627V16.8961C60.5529 18.61 61.1576 20.0707 62.3664 21.2821C63.5754 22.4935 65.0328 23.0994 66.7479 23.0994C68.7864 23.0994 70.4313 22.287 71.6728 20.662C72.91 22.287 74.5502 23.0994 76.5884 23.0994C78.2989 23.0994 79.7607 22.4935 80.97 21.2821C82.1788 20.0707 82.7787 18.61 82.7787 16.8961V3.68627C82.7787 3.33866 82.6616 3.04287 82.4227 2.794C82.1788 2.55454 81.879 2.43696 81.5323 2.43696H81.5043C81.1574 2.43696 80.8623 2.55454 80.6233 2.794C80.3795 3.04287 80.2532 3.33887 80.2532 3.68627V16.8961C80.2532 17.9057 79.8969 18.765 79.1848 19.4789C78.4726 20.1975 77.6056 20.5545 76.5887 20.5545C75.5812 20.5545 74.7237 20.1975 74.0067 19.4789C73.2945 18.7653 72.9382 17.9057 72.9382 16.8961V3.68627C72.9382 3.33866 72.8117 3.04287 72.5683 2.794C72.3291 2.55454 72.034 2.43696 71.6873 2.43696H71.6591C71.3122 2.43696 71.0173 2.55454 70.7689 2.794C70.5206 3.04287 70.3988 3.33887 70.3988 3.68627V16.8961C70.3988 17.9057 70.0425 18.765 69.3257 19.4789C68.6133 20.1975 67.7512 20.5545 66.7482 20.5545C65.7407 20.5545 64.8785 20.1975 64.1662 19.4789C63.4493 18.7653 63.0931 17.9057 63.0931 16.8961L63.0928 3.68627ZM87.507 2.43696C87.8442 2.43696 88.1347 2.55454 88.3832 2.794C88.6316 3.04287 88.7534 3.33887 88.7534 3.68627V21.8456C88.7534 22.1979 88.6316 22.489 88.3832 22.7285C88.1349 22.9773 87.8444 23.0994 87.507 23.0994H87.4646C87.1274 23.0994 86.832 22.9773 86.5837 22.7285C86.34 22.489 86.2137 22.1979 86.2137 21.8456V3.68627C86.2137 3.33866 86.3402 3.04287 86.5837 2.794C86.832 2.55454 87.1274 2.43696 87.4646 2.43696H87.507ZM105.572 21.8456C105.572 22.1979 105.445 22.489 105.201 22.7285C104.953 22.9773 104.658 23.0994 104.32 23.0994H104.278C103.941 23.0994 103.65 22.9773 103.402 22.7285C103.153 22.489 103.032 22.1979 103.032 21.8456V9.13354C103.032 7.98767 102.629 7.00629 101.823 6.18919C101.008 5.3768 100.023 4.96815 98.8709 4.96815C97.7275 4.96815 96.7482 5.3768 95.9326 6.18919C95.1266 7.00608 94.7238 7.98767 94.7238 9.13354V21.8456C94.7238 22.1979 94.602 22.489 94.3536 22.7285C94.1053 22.9773 93.8148 23.0994 93.4773 23.0994H93.435C93.0978 23.0994 92.8024 22.9773 92.554 22.7285C92.3104 22.489 92.1839 22.1979 92.1839 21.8456V9.13354C92.1839 7.28344 92.84 5.70086 94.1474 4.3905C95.4596 3.08528 97.0292 2.43696 98.8711 2.43696C100.722 2.43696 102.301 3.08528 103.608 4.3905C104.916 5.70086 105.572 7.28344 105.572 9.13354L105.572 21.8456ZM111.129 19.634C111.129 19.8876 111.218 20.1082 111.391 20.2913C111.574 20.465 111.794 20.5545 112.052 20.5545H114.123C116.274 20.5545 118.111 19.7985 119.629 18.2861C121.148 16.7601 121.906 14.9237 121.906 12.7684C121.906 10.6129 121.147 8.772 119.629 7.25067C118.111 5.72913 116.274 4.96858 114.123 4.96858H112.052C111.794 4.96858 111.574 5.05767 111.391 5.24101C111.218 5.42392 111.129 5.64474 111.129 5.90305V19.634ZM114.123 2.43696C116.968 2.43696 119.4 3.44189 121.415 5.46119C123.425 7.4807 124.432 9.91316 124.432 12.7682C124.432 15.6187 123.425 18.0559 121.415 20.0707C119.4 22.09 116.968 23.0996 114.123 23.0996H112.052C111.096 23.0996 110.285 22.7617 109.606 22.0806C108.931 21.4044 108.589 20.5873 108.589 19.634V5.90283C108.589 4.94009 108.931 4.11828 109.606 3.4374C110.285 2.77044 111.096 2.43696 112.052 2.43696H114.123ZM132.122 4.93988C131.222 4.93988 130.459 5.25472 129.831 5.8887C129.198 6.52267 128.88 7.28794 128.88 8.18493C128.88 9.27918 129.376 10.1055 130.365 10.6739C130.768 10.904 131.902 11.2891 133.767 11.8337C135.271 12.2799 136.358 12.8153 137.038 13.4257C138.027 14.3272 138.519 15.6046 138.519 17.2673C138.519 18.8826 137.947 20.2585 136.803 21.395C135.669 22.5314 134.301 23.0996 132.699 23.0996H127.469C127.127 23.0996 126.836 22.9776 126.588 22.7287C126.34 22.4798 126.218 22.1887 126.218 21.8458V21.7661C126.218 21.4282 126.34 21.1322 126.588 20.8833C126.836 20.6389 127.127 20.5123 127.469 20.5123H132.835C133.725 20.5123 134.489 20.1977 135.126 19.5637C135.759 18.9297 136.077 18.1645 136.077 17.2675C136.077 16.1919 135.581 15.3606 134.592 14.7646C134.161 14.5063 133.027 14.0882 131.19 13.5108C129.676 13.0175 128.589 12.4636 127.919 11.8577C126.93 10.9701 126.438 9.74438 126.438 8.18536C126.438 6.56979 127.005 5.19411 128.139 4.05766C129.273 2.92101 130.646 2.353 132.258 2.353H135.951C136.298 2.353 136.597 2.47487 136.846 2.72374C137.08 2.96341 137.202 3.25449 137.202 3.6066V3.68649C137.202 4.02447 137.08 4.32046 136.846 4.56934C136.597 4.81351 136.298 4.94009 135.951 4.94009L132.122 4.93988ZM150.89 2.43696C153.734 2.43696 156.171 3.44189 158.19 5.46119C160.205 7.4807 161.213 9.91316 161.213 12.7682C161.213 15.6187 160.205 18.0559 158.19 20.0707C156.171 22.09 153.734 23.0996 150.89 23.0996C148.041 23.0996 145.613 22.09 143.598 20.0707C141.583 18.0561 140.576 15.6187 140.576 12.7682C140.576 9.91316 141.583 7.4807 143.598 5.46119C145.613 3.44189 148.041 2.43696 150.89 2.43696ZM150.89 4.96836C148.748 4.96836 146.916 5.72913 145.398 7.25046C143.875 8.772 143.116 10.6129 143.116 12.7682C143.116 14.9237 143.875 16.7599 145.398 18.2859C146.916 19.7983 148.748 20.5543 150.89 20.5543C153.041 20.5543 154.873 19.7983 156.391 18.2859C157.914 16.7599 158.673 14.9235 158.673 12.7682C158.673 10.6127 157.914 8.77179 156.391 7.25046C154.873 5.72892 153.041 4.96836 150.89 4.96836ZM170.547 12.8342C171.625 12.8342 172.553 12.4538 173.322 11.693C174.09 10.9228 174.474 9.99776 174.474 8.91293C174.474 7.82339 174.09 6.89342 173.322 6.12344C172.553 5.36245 171.626 4.98228 170.547 4.98228H168.968C168.172 4.98228 167.539 5.2076 167.075 5.66788C166.709 6.02492 166.48 6.45221 166.386 6.94525C166.358 7.07654 166.344 7.26438 166.344 7.51326V12.8339L170.547 12.8342ZM174.474 19.3005C174.474 18.2204 174.09 17.2953 173.321 16.5251C172.623 15.816 171.789 15.4356 170.819 15.3793H166.344V21.8456C166.344 22.1979 166.227 22.489 165.988 22.7285C165.739 22.9773 165.444 23.0994 165.097 23.0994H165.069C164.722 23.0994 164.427 22.9773 164.188 22.7285C163.945 22.489 163.818 22.1979 163.818 21.8456V7.38668C163.818 6.01999 164.301 4.85549 165.262 3.89274C166.232 2.92058 167.398 2.43696 168.762 2.43696H170.547C172.333 2.43696 173.851 3.06622 175.102 4.33439C176.367 5.59762 177 7.12838 177 8.91315C177 10.693 176.367 12.219 175.102 13.4823C174.878 13.7123 174.643 13.919 174.404 14.1019C174.652 14.2944 174.891 14.5058 175.116 14.7359C176.372 15.9897 177 17.5162 177 19.3005V21.8456C177 22.1979 176.873 22.489 176.63 22.7285C176.382 22.9773 176.086 23.0994 175.749 23.0994H175.721C175.383 23.0994 175.093 22.9773 174.844 22.7285C174.596 22.489 174.474 22.1979 174.474 21.8456V19.3005Z" fill="#91D8F7"/>
<path d="M60.6904 31.201C60.5989 31.1661 60.5529 31.098 60.5529 30.998V30.2591C60.5529 30.159 60.5989 30.0892 60.6904 30.0517L64.4408 28.5919C64.5143 28.5628 64.5823 28.5696 64.6449 28.6129C64.7101 28.6559 64.7421 28.7172 64.7421 28.7964V29.0693C64.7421 29.1667 64.6962 29.2349 64.6047 29.2723L61.1665 30.6262L64.6047 31.9843C64.6962 32.0192 64.7421 32.0873 64.7421 32.1873V32.4602C64.7421 32.5395 64.7101 32.6007 64.6449 32.6438C64.5823 32.687 64.5143 32.6939 64.4408 32.6647L60.6904 31.201ZM69.1942 30.2102H71.0132C71.1133 30.2102 71.2009 30.2464 71.2729 30.316C71.3466 30.3897 71.3826 30.4788 71.3826 30.5816V30.59C71.3826 30.693 71.3464 30.7793 71.2729 30.8502C71.2009 30.9239 71.1133 30.9601 71.0132 30.9601H69.1942V33.2756C69.1942 33.3799 69.1581 33.4662 69.0846 33.5371C69.0111 33.611 68.9249 33.647 68.8249 33.647H68.8125C68.7125 33.647 68.6249 33.6108 68.5513 33.5371C68.4791 33.4662 68.4417 33.3799 68.4417 33.2756V28.8894C68.4417 28.5122 68.5751 28.1894 68.8403 27.9236C69.1068 27.6566 69.4276 27.5242 69.8055 27.5242H71.0538C71.1537 27.5242 71.2413 27.5591 71.3148 27.63C71.387 27.7039 71.4244 27.7913 71.4244 27.8945V27.9029C71.4244 28.0059 71.387 28.095 71.3148 28.1674C71.2413 28.2383 71.1539 28.2745 71.0538 28.2745H69.8055C69.6373 28.2745 69.493 28.3342 69.3735 28.4542C69.2543 28.5724 69.1944 28.7187 69.1944 28.8896L69.1942 30.2102ZM74.7947 30.6054C75.114 30.6054 75.389 30.4927 75.6166 30.2674C75.8445 30.0391 75.9584 29.7649 75.9584 29.4435C75.9584 29.1207 75.8445 28.8453 75.6166 28.6169C75.389 28.3914 75.114 28.2787 74.7947 28.2787H74.3266C74.0906 28.2787 73.9032 28.3458 73.7658 28.4818C73.6572 28.5876 73.5892 28.7144 73.5617 28.8605C73.5533 28.8994 73.5491 28.9551 73.5491 29.0288V30.6054H74.7947ZM75.9584 32.5217C75.9584 32.2017 75.8445 31.9273 75.6166 31.6992C75.4098 31.4891 75.1627 31.3762 74.8752 31.3597H73.5491V33.276C73.5491 33.3803 73.5142 33.4666 73.4435 33.5375C73.37 33.6114 73.2826 33.6474 73.1795 33.6474H73.1714C73.0686 33.6474 72.981 33.6112 72.9102 33.5375C72.838 33.4666 72.8006 33.3803 72.8006 33.276V28.9913C72.8006 28.5865 72.9436 28.2413 73.2283 27.9562C73.5157 27.6681 73.8615 27.5248 74.2657 27.5248H74.7947C75.3236 27.5248 75.7737 27.7114 76.1443 28.0871C76.5192 28.4614 76.7068 28.9151 76.7068 29.4439C76.7068 29.9712 76.5192 30.4236 76.1443 30.7979C76.0776 30.8661 76.0082 30.9275 75.9374 30.9815C76.0112 31.0387 76.0819 31.1012 76.1486 31.1693C76.5207 31.5409 76.7068 31.9933 76.7068 32.5221V33.2762C76.7068 33.3805 76.6694 33.4669 76.5972 33.5377C76.5235 33.6116 76.4363 33.6476 76.336 33.6476H76.3277C76.2279 33.6476 76.1418 33.6114 76.068 33.5377C75.9945 33.4669 75.9586 33.3805 75.9586 33.2762L75.9584 32.5217ZM81.1395 27.5246C81.9824 27.5246 82.7044 27.8223 83.3028 28.421C83.8997 29.0192 84.1985 29.7401 84.1985 30.5861C84.1985 31.4309 83.8999 32.1529 83.3028 32.75C82.7044 33.3482 81.9822 33.6476 81.1395 33.6476C80.2953 33.6476 79.5761 33.3484 78.9789 32.75C78.3818 32.1529 78.0832 31.4309 78.0832 30.5861C78.0832 29.7401 78.3816 29.0194 78.9789 28.421C79.5759 27.8225 80.2953 27.5246 81.1395 27.5246ZM81.1395 28.2747C80.5049 28.2747 79.9621 28.5002 79.5122 28.9511C79.0608 29.4019 78.836 29.9474 78.836 30.5861C78.836 31.225 79.0608 31.7688 79.5122 32.2212C79.9621 32.6695 80.5049 32.8933 81.1395 32.8933C81.777 32.8933 82.3197 32.6695 82.7698 32.2212C83.2212 31.7688 83.446 31.225 83.446 30.5861C83.446 29.9474 83.2212 29.4019 82.7698 28.9511C82.3197 28.5002 81.777 28.2747 81.1395 28.2747ZM89.7446 33.276C89.7446 33.3803 89.7072 33.4666 89.6352 33.5375C89.5615 33.6114 89.4741 33.6474 89.3741 33.6474H89.3614C89.2616 33.6474 89.1755 33.6112 89.1018 33.5375C89.0282 33.4666 88.9923 33.3803 88.9923 33.276V29.509C88.9923 29.1695 88.8729 28.8787 88.6341 28.6364C88.3924 28.3957 88.1009 28.2747 87.7591 28.2747C87.4204 28.2747 87.1304 28.3957 86.8887 28.6364C86.6497 28.8787 86.5304 29.1695 86.5304 29.509V33.276C86.5304 33.3803 86.4943 33.4666 86.4208 33.5375C86.3473 33.6114 86.2612 33.6474 86.1611 33.6474H86.1487C86.0487 33.6474 85.9611 33.6112 85.8876 33.5375C85.8153 33.4666 85.7779 33.3803 85.7779 33.276V29.509C85.7779 28.9607 85.9722 28.4919 86.3597 28.1035C86.7487 27.7165 87.2137 27.5246 87.7594 27.5246C88.308 27.5246 88.7758 27.7167 89.1633 28.1035C89.5508 28.4919 89.7451 28.9607 89.7451 29.509L89.7446 33.276ZM94.88 27.9033C94.88 28.0063 94.8439 28.0954 94.7704 28.1678C94.6996 28.2387 94.6135 28.2749 94.5094 28.2749H93.3957V33.2762C93.3957 33.3805 93.3594 33.4669 93.2886 33.5377C93.2164 33.6116 93.1277 33.6476 93.0247 33.6476H93.0166C92.9138 33.6476 92.8248 33.6114 92.7526 33.5377C92.6819 33.4669 92.647 33.3805 92.647 33.2762V28.2749H91.5318C91.432 28.2749 91.3444 28.2387 91.2709 28.1678C91.1986 28.0954 91.1612 28.0065 91.1612 27.9033V27.8949C91.1612 27.7919 91.1986 27.7043 91.2709 27.6304C91.3444 27.5595 91.4318 27.5246 91.5318 27.5246H94.509C94.6131 27.5246 94.6992 27.5595 94.7699 27.6304C94.8437 27.7043 94.8796 27.7917 94.8796 27.8949L94.88 27.9033ZM98.4616 30.5904C98.4616 30.6934 98.4253 30.7797 98.352 30.8506C98.2782 30.9243 98.191 30.9605 98.0867 30.9605H96.4233C96.3205 30.9605 96.2329 30.9241 96.1636 30.8506C96.0899 30.7797 96.054 30.6934 96.054 30.5904V30.5821C96.054 30.4792 96.0901 30.3899 96.1636 30.3165C96.2329 30.2441 96.3205 30.2066 96.4233 30.2066H98.0867C98.191 30.2066 98.2784 30.2441 98.352 30.3165C98.4255 30.3901 98.4616 30.4792 98.4616 30.5821V30.5904ZM100.671 30.2107H102.734C102.834 30.2107 102.921 30.2469 102.994 30.3165C103.068 30.3901 103.104 30.4792 103.104 30.5821V30.5904C103.104 30.6934 103.068 30.781 102.994 30.8549C102.921 30.9258 102.834 30.9607 102.734 30.9607H100.671V32.2826C100.671 32.451 100.731 32.5943 100.85 32.714C100.97 32.8335 101.114 32.8935 101.282 32.8935H102.734C102.834 32.8935 102.921 32.9297 102.994 33.0034C103.068 33.077 103.104 33.1646 103.104 33.269V33.276C103.104 33.3803 103.068 33.4666 102.994 33.5375C102.921 33.6114 102.834 33.6474 102.734 33.6474H101.282C100.904 33.6474 100.583 33.5138 100.317 33.248C100.052 32.9809 99.9183 32.6594 99.9183 32.2822V28.8896C99.9183 28.5124 100.052 28.1896 100.317 27.9239C100.583 27.6568 100.904 27.5244 101.282 27.5244H102.734C102.834 27.5244 102.921 27.5608 102.994 27.6343C103.068 27.7039 103.104 27.7915 103.104 27.8945V27.9029C103.104 28.0059 103.068 28.095 102.994 28.1674C102.921 28.2411 102.834 28.2785 102.734 28.2785H101.282C101.114 28.2785 100.97 28.3383 100.85 28.4582C100.731 28.5765 100.671 28.7212 100.671 28.8896V30.2107ZM108.549 33.2762C108.549 33.3805 108.511 33.4669 108.439 33.5377C108.366 33.6116 108.278 33.6476 108.178 33.6476H108.166C108.066 33.6476 107.98 33.6114 107.906 33.5377C107.832 33.4669 107.796 33.3805 107.796 33.2762V29.5092C107.796 29.1697 107.677 28.8789 107.438 28.6366C107.196 28.3959 106.905 28.2749 106.563 28.2749C106.224 28.2749 105.934 28.3959 105.693 28.6366C105.454 28.8789 105.335 29.1697 105.335 29.5092V33.2762C105.335 33.3805 105.298 33.4669 105.225 33.5377C105.151 33.6116 105.065 33.6476 104.965 33.6476H104.953C104.853 33.6476 104.765 33.6114 104.692 33.5377C104.619 33.4669 104.582 33.3805 104.582 33.2762V29.5092C104.582 28.9609 104.776 28.4921 105.164 28.1038C105.553 27.7167 106.018 27.5248 106.563 27.5248C107.112 27.5248 107.58 27.717 107.967 28.1038C108.355 28.4921 108.549 28.9609 108.549 29.5092L108.549 33.2762ZM111.003 32.6206C111.003 32.696 111.029 32.7611 111.08 32.8155C111.135 32.8669 111.2 32.8935 111.276 32.8935H111.89C112.528 32.8935 113.072 32.6697 113.522 32.2214C113.972 31.769 114.197 31.2252 114.197 30.5863C114.197 29.9476 113.972 29.4021 113.522 28.9513C113.072 28.5004 112.528 28.2749 111.89 28.2749H111.276C111.2 28.2749 111.135 28.3012 111.08 28.3556C111.029 28.41 111.003 28.4752 111.003 28.5518V32.6206ZM111.89 27.5248C112.733 27.5248 113.453 27.8225 114.051 28.4212C114.646 29.0194 114.945 29.7403 114.945 30.5863C114.945 31.4311 114.646 32.1531 114.051 32.7502C113.453 33.3484 112.733 33.6478 111.89 33.6478H111.276C110.993 33.6478 110.752 33.5478 110.551 33.3458C110.351 33.1454 110.25 32.9036 110.25 32.6208V28.552C110.25 28.2668 110.351 28.0232 110.551 27.8215C110.753 27.6238 110.993 27.525 111.276 27.525L111.89 27.5248ZM119.437 32.6206C119.437 32.696 119.463 32.7611 119.515 32.8155C119.569 32.8669 119.634 32.8935 119.711 32.8935H120.324C120.962 32.8935 121.506 32.6697 121.956 32.2214C122.406 31.769 122.631 31.2252 122.631 30.5863C122.631 29.9476 122.406 29.4021 121.956 28.9513C121.506 28.5004 120.962 28.2749 120.324 28.2749H119.711C119.634 28.2749 119.569 28.3012 119.515 28.3556C119.464 28.41 119.437 28.4752 119.437 28.5518V32.6206ZM120.324 27.5248C121.167 27.5248 121.888 27.8225 122.485 28.4212C123.081 29.0194 123.379 29.7403 123.379 30.5863C123.379 31.4311 123.081 32.1531 122.485 32.7502C121.888 33.3484 121.167 33.6478 120.324 33.6478H119.71C119.427 33.6478 119.187 33.5478 118.986 33.3458C118.786 33.1454 118.684 32.9036 118.684 32.6208V28.552C118.684 28.2668 118.786 28.0232 118.986 27.8215C119.187 27.6238 119.427 27.525 119.71 27.525L120.324 27.5248ZM125.63 30.2107H127.694C127.794 30.2107 127.88 30.2469 127.953 30.3165C128.027 30.3901 128.063 30.4792 128.063 30.5821V30.5904C128.063 30.6934 128.027 30.781 127.953 30.8549C127.88 30.9258 127.794 30.9607 127.694 30.9607H125.63V32.2826C125.63 32.451 125.69 32.5943 125.81 32.714C125.929 32.8335 126.073 32.8935 126.241 32.8935H127.694C127.794 32.8935 127.88 32.9297 127.953 33.0034C128.027 33.077 128.063 33.1646 128.063 33.269V33.276C128.063 33.3803 128.027 33.4666 127.953 33.5375C127.88 33.6114 127.794 33.6474 127.694 33.6474H126.241C125.864 33.6474 125.543 33.5138 125.276 33.248C125.011 32.9809 124.878 32.6594 124.878 32.2822V28.8896C124.878 28.5124 125.011 28.1896 125.276 27.9239C125.543 27.6568 125.864 27.5244 126.241 27.5244H127.694C127.794 27.5244 127.88 27.5608 127.953 27.6343C128.027 27.7039 128.063 27.7915 128.063 27.8945V27.9029C128.063 28.0059 128.027 28.095 127.953 28.1674C127.88 28.2411 127.794 28.2785 127.694 28.2785H126.241C126.073 28.2785 125.929 28.3383 125.81 28.4582C125.69 28.5765 125.63 28.7212 125.63 28.8896V30.2107ZM131.445 32.657C131.456 32.657 131.465 32.6487 131.474 32.6333L131.486 32.6082L132.963 27.7726C133.019 27.6071 133.136 27.5248 133.312 27.5248H133.342C133.468 27.5248 133.569 27.5764 133.641 27.6793C133.718 27.7823 133.734 27.8949 133.691 28.0174L132.022 33.2522C131.92 33.5153 131.728 33.6474 131.445 33.6474C131.163 33.6474 130.97 33.5153 130.863 33.2522L129.199 28.0174C129.156 27.8949 129.172 27.7823 129.244 27.6793C129.32 27.5764 129.422 27.5248 129.549 27.5248H129.579C129.755 27.5248 129.872 27.6071 129.928 27.7726L131.405 32.6082L131.417 32.6333C131.425 32.6487 131.435 32.657 131.445 32.657ZM135.804 30.2107H137.867C137.967 30.2107 138.053 30.2469 138.127 30.3165C138.201 30.3901 138.236 30.4792 138.236 30.5821V30.5904C138.236 30.6934 138.2 30.781 138.127 30.8549C138.053 30.9258 137.967 30.9607 137.867 30.9607H135.804V32.2826C135.804 32.451 135.864 32.5943 135.983 32.714C136.102 32.8335 136.247 32.8935 136.415 32.8935H137.867C137.967 32.8935 138.053 32.9297 138.127 33.0034C138.201 33.077 138.236 33.1646 138.236 33.269V33.276C138.236 33.3803 138.2 33.4666 138.127 33.5375C138.053 33.6114 137.967 33.6474 137.867 33.6474H136.415C136.037 33.6474 135.716 33.5138 135.45 33.248C135.185 32.9809 135.051 32.6594 135.051 32.2822V28.8896C135.051 28.5124 135.185 28.1896 135.45 27.9239C135.716 27.6568 136.037 27.5244 136.415 27.5244H137.867C137.967 27.5244 138.053 27.5608 138.127 27.6343C138.201 27.7039 138.236 27.7915 138.236 27.8945V27.9029C138.236 28.0059 138.2 28.095 138.127 28.1674C138.053 28.2411 137.967 28.2785 137.867 28.2785H136.415C136.247 28.2785 136.102 28.3383 135.983 28.4582C135.864 28.5765 135.804 28.7212 135.804 28.8896V30.2107ZM140.509 27.8952C140.509 27.7921 140.471 27.7045 140.399 27.6306C140.325 27.5597 140.238 27.5248 140.138 27.5248H140.125C140.025 27.5248 139.938 27.5597 139.866 27.6306C139.792 27.7045 139.756 27.7919 139.756 27.8952V32.2826C139.756 32.6598 139.888 32.9813 140.155 33.2484C140.42 33.514 140.742 33.6478 141.118 33.6478H142.303C142.406 33.6478 142.493 33.6116 142.567 33.538C142.64 33.4671 142.676 33.3808 142.676 33.2764V33.2694C142.676 33.1651 142.64 33.0773 142.567 33.0038C142.493 32.9299 142.406 32.8939 142.303 32.8939H141.118C140.95 32.8939 140.806 32.8342 140.687 32.7144C140.568 32.5947 140.509 32.4512 140.509 32.2831L140.509 27.8952ZM146.904 27.525C147.747 27.525 148.469 27.8228 149.068 28.4214C149.665 29.0196 149.964 29.7405 149.964 30.5865C149.964 31.4313 149.665 32.1533 149.068 32.7504C148.469 33.3486 147.747 33.6481 146.904 33.6481C146.06 33.6481 145.341 33.3488 144.744 32.7504C144.147 32.1533 143.848 31.4313 143.848 30.5865C143.848 29.7405 144.147 29.0198 144.744 28.4214C145.341 27.823 146.06 27.525 146.904 27.525ZM146.904 28.2751C146.27 28.2751 145.727 28.5006 145.277 28.9515C144.826 29.4023 144.601 29.9479 144.601 30.5865C144.601 31.2254 144.826 31.7693 145.277 32.2216C145.727 32.6699 146.27 32.8937 146.904 32.8937C147.542 32.8937 148.085 32.6699 148.535 32.2216C148.986 31.7693 149.211 31.2254 149.211 30.5865C149.211 29.9479 148.986 29.4023 148.535 28.9515C148.085 28.5006 147.542 28.2751 146.904 28.2751ZM152.295 30.8551H153.581C153.936 30.8551 154.24 30.7286 154.492 30.4765C154.742 30.2261 154.867 29.9226 154.867 29.5666C154.867 29.2117 154.742 28.9069 154.492 28.6538C154.24 28.4004 153.936 28.2751 153.581 28.2751C153.225 28.2751 152.921 28.4004 152.67 28.6538C152.42 28.9072 152.295 29.2117 152.295 29.5666V30.8551ZM152.295 31.6093V33.2764C152.295 33.3808 152.259 33.4671 152.185 33.538C152.112 33.6119 152.026 33.6478 151.926 33.6478H151.913C151.813 33.6478 151.726 33.6116 151.652 33.538C151.58 33.4671 151.543 33.3808 151.543 33.2764V29.5666C151.543 29.0016 151.743 28.5188 152.141 28.1194C152.54 27.7227 153.02 27.525 153.581 27.525C154.145 27.525 154.625 27.7227 155.021 28.1194C155.419 28.5188 155.619 29.0016 155.619 29.5666C155.619 30.1301 155.419 30.6103 155.021 31.0096C154.625 31.4103 154.144 31.6093 153.581 31.6093H152.295ZM157.911 30.2109H159.974C160.074 30.2109 160.16 30.2471 160.234 30.3167C160.308 30.3904 160.343 30.4795 160.343 30.5823V30.5906C160.343 30.6936 160.307 30.7812 160.234 30.8551C160.16 30.926 160.074 30.9609 159.974 30.9609H157.911V32.2829C157.911 32.4512 157.97 32.5945 158.09 32.7142C158.209 32.8337 158.354 32.8937 158.522 32.8937H159.974C160.074 32.8937 160.16 32.9299 160.234 33.0036C160.308 33.0773 160.343 33.1649 160.343 33.2692V33.2762C160.343 33.3805 160.307 33.4669 160.234 33.5377C160.16 33.6116 160.074 33.6476 159.974 33.6476H158.522C158.144 33.6476 157.823 33.514 157.557 33.2482C157.292 32.9811 157.158 32.6596 157.158 32.2824V28.8898C157.158 28.5126 157.291 28.1899 157.557 27.9241C157.823 27.657 158.144 27.5246 158.522 27.5246H159.974C160.074 27.5246 160.16 27.561 160.234 27.6345C160.308 27.7041 160.343 27.7917 160.343 27.8947V27.9031C160.343 28.0061 160.307 28.0952 160.234 28.1676C160.16 28.2413 160.074 28.2787 159.974 28.2787H158.522C158.354 28.2787 158.209 28.3385 158.09 28.4584C157.971 28.5767 157.911 28.7215 157.911 28.8898V30.2109ZM163.815 30.606C164.135 30.606 164.41 30.4934 164.637 30.2681C164.865 30.0397 164.979 29.7656 164.979 29.4441C164.979 29.1213 164.865 28.8459 164.637 28.6176C164.41 28.392 164.135 28.2794 163.815 28.2794H163.347C163.111 28.2794 162.924 28.3464 162.787 28.4824C162.678 28.5882 162.61 28.715 162.582 28.8611C162.574 28.9001 162.57 28.9558 162.57 29.0295V30.606H163.815ZM164.979 32.5223C164.979 32.2023 164.865 31.928 164.637 31.6999C164.431 31.4897 164.183 31.3769 163.896 31.3604H162.57V33.2767C162.57 33.381 162.535 33.4673 162.464 33.5382C162.391 33.6121 162.303 33.6481 162.2 33.6481H162.192C162.089 33.6481 162.002 33.6119 161.931 33.5382C161.859 33.4673 161.821 33.381 161.821 33.2767V28.992C161.821 28.5872 161.964 28.2419 162.249 27.9568C162.536 27.6688 162.882 27.5255 163.286 27.5255H163.815C164.344 27.5255 164.794 27.712 165.165 28.0877C165.54 28.4621 165.728 28.9157 165.728 29.4445C165.728 29.9718 165.54 30.4242 165.165 30.7986C165.098 30.8667 165.029 30.9282 164.958 30.9821C165.032 31.0393 165.103 31.1019 165.169 31.17C165.541 31.5416 165.728 31.9939 165.728 32.5227V33.2769C165.728 33.3812 165.69 33.4675 165.618 33.5384C165.544 33.6123 165.457 33.6483 165.357 33.6483H165.348C165.249 33.6483 165.163 33.6121 165.089 33.5384C165.015 33.4675 164.979 33.3812 164.979 33.2769L164.979 32.5223ZM171.562 27.5253L169.756 33.6481H169.06L170.871 27.5253H171.562ZM172.914 32.6658C172.842 32.6949 172.774 32.6881 172.711 32.6448C172.646 32.6018 172.614 32.5405 172.614 32.4613V32.1884C172.614 32.0884 172.66 32.0201 172.751 31.9854L176.194 30.6272L172.751 29.2734C172.66 29.2359 172.614 29.1676 172.614 29.0704V28.7975C172.614 28.7182 172.646 28.657 172.711 28.6139C172.774 28.5707 172.842 28.5638 172.914 28.593L176.666 30.0528C176.757 30.0903 176.803 30.1601 176.803 30.2601V30.9991C176.803 31.0991 176.757 31.1674 176.666 31.2021L172.914 32.6658Z" fill="#1692C5"/>
<defs>
<linearGradient id="paint0_linear_81_464" x1="-9.54003" y1="10.3664" x2="101.29" y2="109.469" gradientUnits="userSpaceOnUse">
<stop stop-color="#91D8F7"/>
<stop offset="1" stop-color="#1692C5"/>
</linearGradient>
</defs>
</svg>
